<svg width="21" height="20" viewBox="0 0 21 20" fill="none" xmlns="http://www.w3.org/2000/svg">
<path d="M10.2279 6.0185C9.49787 6.0185 8.36786 5.1885 7.17786 5.2185C5.60786 5.2385 4.16786 6.1285 3.35786 7.5385C1.72786 10.3685 2.93786 14.5485 4.52786 16.8485C5.30786 17.9685 6.22786 19.2285 7.44786 19.1885C8.61786 19.1385 9.05787 18.4285 10.4779 18.4285C11.8879 18.4285 12.2879 19.1885 13.5279 19.1585C14.7879 19.1385 15.5879 18.0185 16.3579 16.8885C17.2479 15.5885 17.6179 14.3285 17.6379 14.2585C17.6079 14.2485 15.1879 13.3185 15.1579 10.5185C15.1379 8.1785 17.0679 7.0585 17.1579 7.0085C16.0579 5.3985 14.3679 5.2185 13.7779 5.1785C12.2379 5.0585 10.9479 6.0185 10.2279 6.0185ZM12.8279 3.6585C13.4779 2.8785 13.9079 1.7885 13.7879 0.708496C12.8579 0.748496 11.7379 1.3285 11.0679 2.1085C10.4679 2.7985 9.94787 3.9085 10.0879 4.9685C11.1179 5.0485 12.1779 4.4385 12.8279 3.6585Z" fill="#0F0F0F"/>
</svg>
