<svg width="29" height="29" viewBox="0 0 29 29" fill="none" xmlns="http://www.w3.org/2000/svg">
<path d="M10.9386 17.2395C10.9386 17.2395 12.4827 19.0041 15.0561 19.0041C17.6295 19.0041 19.1736 17.2395 19.1736 17.2395M18.2913 11.3574H18.303M11.821 11.3574H11.8327M15.0561 24.298C20.5787 24.298 25.0557 19.8211 25.0557 14.2984C25.0557 8.7758 20.5787 4.29883 15.0561 4.29883C9.53349 4.29883 5.05651 8.7758 5.05651 14.2984C5.05651 15.416 5.23985 16.4908 5.5781 17.4943C5.70539 17.872 5.76904 18.0608 5.78052 18.2058C5.79185 18.3491 5.78328 18.4495 5.74784 18.5888C5.71195 18.7298 5.63272 18.8765 5.47425 19.1698L3.55003 22.7315C3.27555 23.2395 3.13832 23.4935 3.16903 23.6896C3.19578 23.8603 3.29628 24.0107 3.44384 24.1007C3.61325 24.204 3.90044 24.1743 4.47482 24.115L10.4993 23.4922C10.6818 23.4733 10.773 23.4639 10.8561 23.4671C10.9379 23.4702 10.9956 23.4779 11.0754 23.4963C11.1565 23.515 11.2584 23.5543 11.4623 23.6328C12.5776 24.0625 13.7894 24.298 15.0561 24.298ZM18.8795 11.3574C18.8795 11.6822 18.6161 11.9456 18.2913 11.9456C17.9664 11.9456 17.7031 11.6822 17.7031 11.3574C17.7031 11.0325 17.9664 10.7692 18.2913 10.7692C18.6161 10.7692 18.8795 11.0325 18.8795 11.3574ZM12.4092 11.3574C12.4092 11.6822 12.1458 11.9456 11.821 11.9456C11.4961 11.9456 11.2327 11.6822 11.2327 11.3574C11.2327 11.0325 11.4961 10.7692 11.821 10.7692C12.1458 10.7692 12.4092 11.0325 12.4092 11.3574Z" stroke="white" stroke-width="2.35285" stroke-linecap="round" stroke-linejoin="round"/>
</svg>
