<svg width="27" height="27" viewBox="0 0 27 27" fill="none" xmlns="http://www.w3.org/2000/svg">
<path d="M6.97809 12.9795C6.90496 12.5083 6.86703 12.0255 6.86703 11.534C6.86703 6.33618 11.1084 2.12256 16.3403 2.12256C21.5723 2.12256 25.8136 6.33618 25.8136 11.534C25.8136 12.7081 25.5972 13.832 25.2018 14.8685C25.1197 15.0838 25.0786 15.1914 25.06 15.2755C25.0415 15.3587 25.0344 15.4173 25.0324 15.5026C25.0304 15.5886 25.042 15.6834 25.0654 15.873L25.539 19.7201C25.5903 20.1366 25.6159 20.3448 25.5466 20.4962C25.4859 20.6288 25.3781 20.7342 25.2441 20.7918C25.0912 20.8576 24.8836 20.8272 24.4684 20.7663L20.7212 20.217C20.5255 20.1884 20.4277 20.174 20.3386 20.1745C20.2504 20.175 20.1895 20.1815 20.1032 20.1997C20.016 20.218 19.9046 20.2597 19.6818 20.3432C18.6427 20.7324 17.5165 20.9453 16.3403 20.9453C15.8484 20.9453 15.3652 20.9081 14.8934 20.8363M8.7865 25.651C12.2745 25.651 15.102 22.7542 15.102 19.1807C15.102 15.6072 12.2745 12.7104 8.7865 12.7104C5.29853 12.7104 2.47096 15.6072 2.47096 19.1807C2.47096 19.899 2.58521 20.59 2.79612 21.2356C2.88527 21.5085 2.92984 21.645 2.94447 21.7382C2.95974 21.8355 2.96242 21.8902 2.95673 21.9885C2.95128 22.0827 2.92772 22.1892 2.88058 22.4021L2.16138 25.651L5.68453 25.1699C5.87684 25.1436 5.97299 25.1305 6.05695 25.1311C6.14536 25.1317 6.19228 25.1364 6.27899 25.1537C6.36133 25.1701 6.48375 25.2133 6.72857 25.2998C7.37363 25.5274 8.06598 25.651 8.7865 25.651Z" stroke="white" stroke-width="2.35285" stroke-linecap="round" stroke-linejoin="round"/>
</svg>
