<svg width="59" height="32" viewBox="0 0 79 52" fill="none" xmlns="http://www.w3.org/2000/svg">
<path d="M62.7091 37.4074C65.2525 37.4588 67.6302 39.3301 67.6302 41.874V48.0001C67.6302 50.2092 65.8393 52.0001 63.6302 52.0001H4C1.79086 52.0001 0 50.2092 0 48.0001V14.1627C0 11.9536 1.79086 10.1627 4 10.1627H36.343C38.9494 10.1627 40.8474 12.6382 40.8203 15.2444C40.8194 15.3291 40.819 15.4139 40.8191 15.4986C40.8167 18.3748 41.3814 21.2228 42.4804 23.8808C43.5793 26.5388 45.191 28.9542 47.2239 30.9889C49.2568 33.0235 51.6708 34.638 54.3278 35.7392C56.9848 36.8405 59.8329 37.4074 62.7091 37.4074Z" fill="white"/>
<path d="M62.7661 31.1471C71.3671 31.1471 78.3396 24.1746 78.3396 15.5736C78.3396 6.97252 71.3671 0 62.7661 0C54.165 0 47.1925 6.97252 47.1925 15.5736C47.1925 24.1746 54.165 31.1471 62.7661 31.1471Z" fill="white"/>
<path d="M59.0883 10.1066L61.2941 12.4633C61.8597 13.0667 62.3501 13.6317 62.8592 14.2539C63.3682 13.594 63.8769 13.0284 64.386 12.3685L66.5545 10.0311H69.5709L64.311 15.3292L69.7408 20.9855H66.5545L64.2921 18.5155C63.6888 17.8744 63.1795 17.2711 62.6327 16.63C62.1048 17.2899 61.5771 17.8744 60.9926 18.5155L58.7675 20.9855H55.6567L61.1431 15.3292L55.9205 9.974L59.0883 10.1066Z" fill="black"/>
</svg>
