<svg width="44" height="34" viewBox="0 0 64 54" fill="none" xmlns="http://www.w3.org/2000/svg">
<path d="M9.11227 24.3452C6.83591 24.1256 6.50752 23.8979 6.24115 22.319H5.71349C4.42535 22.319 3.13822 22.3301 1.85008 22.319C0.50398 22.3037 0.026125 21.8107 0.00782457 20.4595C-0.000308931 19.8332 0.015976 19.2059 0.000725629 18.5796C-0.0206248 17.7124 0.430783 17.1471 1.14246 16.7496C2.18965 16.1589 3.24193 15.5763 4.2942 14.9866C12.8344 10.1743 21.3708 5.35623 29.9036 0.532388C31.1439 -0.172177 32.2419 -0.179303 33.4762 0.522211C43.0195 5.93303 52.5764 11.3215 62.1468 16.6876C63.0699 17.2071 63.4969 17.9076 63.3861 18.9649C63.3373 19.4336 63.3912 19.9125 63.3912 20.3883C63.3912 21.8116 62.892 22.3129 61.4595 22.32C60.1551 22.3281 58.8507 22.32 57.5463 22.32H57.0095C56.5469 24.0128 56.434 24.0972 54.239 24.3635C54.6538 31.7356 55.0686 39.1157 55.4865 46.5528C55.6898 46.5629 55.8728 46.5771 56.0518 46.5792C58.2204 46.6046 59.8704 48.2211 59.8572 50.3094C59.844 52.3977 58.1726 53.9939 55.9989 53.9959C50.6796 54.0014 45.3589 54.0014 40.0369 53.9959C29.1773 53.9959 18.318 53.9959 7.45914 53.9959C5.68603 53.9959 4.32266 53.09 3.77975 51.567C2.90845 49.127 4.6419 46.6056 7.23649 46.5944C7.77025 46.5944 7.90141 46.4379 7.93089 45.9224C8.31012 39.259 8.71678 32.5977 9.10922 25.9353C9.1387 25.4178 9.11227 24.8963 9.11227 24.3452ZM31.6624 13.7229C30.7535 13.912 29.7948 14.0421 28.8797 14.3146C26.8687 14.9134 24.8821 15.5936 22.8813 16.2229C20.4921 16.9732 18.1029 17.7083 15.7045 18.4444C14.4265 18.8378 13.8155 19.766 13.9659 21.0969C14.0056 21.4507 14.0391 21.8086 14.09 22.1563C15.6618 33.0857 21.6277 40.9213 31.0768 46.3179C31.5679 46.5985 31.939 46.5212 32.3761 46.2732C35.9284 44.2398 39.1442 41.7804 41.8435 38.6826C46.2804 33.593 48.7662 27.6627 49.4158 20.9566C49.5389 19.6939 48.9268 18.845 47.7261 18.4668C43.2405 17.0546 38.7558 15.6312 34.2621 14.2404C33.4467 13.9892 32.5795 13.9028 31.6624 13.7229Z" fill="white"/>
<path d="M37.3244 26.3725C36.2955 26.3725 35.3489 26.3827 34.4034 26.3603C34.2895 26.3603 34.1493 26.2017 34.0781 26.0828C34.0069 25.9638 34.0293 25.8205 34.0019 25.6873C33.6918 24.1887 32.5541 23.5024 31.091 23.9345C30.3295 24.1602 29.9818 24.7357 29.871 25.4718C29.7449 26.3319 29.8975 27.13 30.7149 27.5916C31.5679 28.0735 32.4656 28.4751 33.344 28.9133C34.0262 29.2518 34.7318 29.5497 35.3856 29.935C36.9167 30.8399 37.4758 32.248 37.4006 33.9754C37.3284 35.6742 36.6289 36.9867 35.0622 37.7259C34.4583 38.0116 33.7883 38.1681 33.1366 38.3359C32.854 38.4101 32.7371 38.5169 32.7513 38.8107C32.7706 39.2103 32.7513 39.6129 32.7513 40.0399H30.9436C30.9436 39.6474 30.9223 39.2641 30.9498 38.8839C30.9742 38.5474 30.8247 38.4478 30.5217 38.3349C29.5772 37.9811 28.59 37.672 27.74 37.1494C26.3238 36.2781 25.8378 34.8944 26.0117 33.227H29.1502C29.2112 33.5402 29.2518 33.8574 29.3352 34.1654C29.568 35.053 30.1486 35.6173 31.0433 35.7708C31.5444 35.8501 32.0549 35.8501 32.5561 35.7708C33.3817 35.6457 33.8992 35.0784 34.0466 34.2458C34.2072 33.3399 34.0272 32.5174 33.1936 32.0314C32.3324 31.5312 31.4083 31.1418 30.5156 30.6965C29.8344 30.357 29.1278 30.057 28.4883 29.6504C26.9907 28.6987 26.3533 27.2835 26.5088 25.5348C26.6603 23.8288 27.5255 22.5813 29.0912 21.8635C29.586 21.643 30.1008 21.4704 30.6285 21.3481C31.0433 21.2464 31.1724 21.0431 31.1368 20.6364C31.1033 20.2683 31.1297 19.8963 31.1297 19.4875H32.9414C32.9414 19.8993 32.9648 20.3172 32.9353 20.731C32.9058 21.1447 33.0228 21.2952 33.4437 21.4213C34.1472 21.6328 34.867 21.894 35.477 22.3017C36.874 23.2493 37.3793 24.6553 37.3244 26.3725Z" fill="white"/>
</svg>
