<svg width="29" height="29" viewBox="0 0 29 29" fill="none" xmlns="http://www.w3.org/2000/svg">
<path d="M10.5815 11.1848C11.4003 12.8902 12.5165 14.4885 13.93 15.9021C15.3436 17.3156 16.942 18.4318 18.6473 19.2506C18.794 19.321 18.8674 19.3562 18.9602 19.3833C19.29 19.4794 19.695 19.4104 19.9743 19.2104C20.0529 19.1541 20.1201 19.0869 20.2546 18.9524C20.6659 18.5411 20.8715 18.3355 21.0783 18.201C21.8582 17.694 22.8635 17.694 23.6434 18.201C23.8501 18.3355 24.0558 18.5411 24.4671 18.9524L24.6963 19.1816C25.3215 19.8068 25.6341 20.1194 25.8039 20.4552C26.1416 21.1229 26.1416 21.9114 25.8039 22.5791C25.6341 22.9148 25.3215 23.2274 24.6963 23.8526L24.5109 24.038C23.8878 24.6611 23.5763 24.9726 23.1527 25.2106C22.6827 25.4746 21.9528 25.6644 21.4137 25.6628C20.9279 25.6614 20.5959 25.5671 19.9319 25.3786C16.3633 24.3658 12.996 22.4547 10.1867 19.6454C7.37741 16.8362 5.46634 13.4688 4.45347 9.90025C4.265 9.23622 4.17077 8.9042 4.16932 8.4184C4.16772 7.87934 4.35755 7.14938 4.62156 6.67939C4.85949 6.25584 5.17102 5.94431 5.79408 5.32125L5.97953 5.1358C6.60473 4.5106 6.91733 4.198 7.25306 4.02819C7.92075 3.69047 8.70927 3.69047 9.37696 4.02819C9.71269 4.198 10.0253 4.5106 10.6505 5.1358L10.8797 5.36505C11.291 5.77634 11.4967 5.98198 11.6311 6.18877C12.1381 6.96861 12.1381 7.97396 11.6311 8.7538C11.4967 8.96059 11.291 9.16623 10.8797 9.57751C10.7453 9.71199 10.678 9.77923 10.6217 9.85783C10.4217 10.1372 10.3527 10.5421 10.4488 10.872C10.4759 10.9648 10.5111 11.0381 10.5815 11.1848Z" stroke="white" stroke-width="2.35285" stroke-linecap="round" stroke-linejoin="round"/>
</svg>
