<svg width="32" height="32" viewBox="0 0 44 44" fill="none" xmlns="http://www.w3.org/2000/svg">
<path d="M16.2652 3.87802C18.4118 -1.29267 25.5882 -1.29267 27.7348 3.87802L29.23 7.47958C30.1091 9.59713 32.0392 11.0651 34.2778 11.3188L38.4503 11.7916C43.7196 12.3888 45.896 19.0068 42.0476 22.7305L38.5049 26.1584C36.9473 27.6656 36.2591 29.8853 36.6834 32.0332L37.5388 36.3631C38.6215 41.844 32.7498 45.9821 28.1155 43.0044L25.3173 41.2064C23.2898 39.9036 20.7102 39.9036 18.6827 41.2064L15.8845 43.0044C11.2502 45.9821 5.37854 41.844 6.46124 36.3631L7.31659 32.0332C7.74089 29.8853 7.05265 27.6656 5.49505 26.1584L1.95241 22.7305C-1.89596 19.0068 0.280417 12.3888 5.54973 11.7916L9.72219 11.3188C11.9608 11.0651 13.8909 9.59713 14.77 7.47958L16.2652 3.87802Z" fill="white"/>
</svg>
